#!OML:ASF F:\VICON\USERDATA\INSTALL\rory3\rory3.ASF
:FULLY-SPECIFIED
:DEGREES
384
root -7.64449 15.8464 11.5736 191.313 198.482 184.635
lowerback -7.04649 1.3587 0.941038
upperback -8.68951 1.62313 -2.74509
thorax -4.99038 0.638802 -3.34164
lowerneck -9.68271 4.4761 4.45423
upperneck 35.3491 3.68849 4.86104
head 13.5762 2.78689 1.66234
rclavicle 1.17345e-014 -3.11098e-014
rhumerus -31.7787 45.2117 -55.9239
rradius 42.3512
rwrist 4.4643
rhand 6.59076 14.0381
rfingers 7.12502
rthumb 31.8861 -13.1906
lclavicle 1.17345e-014 -3.11098e-014
lhumerus -172.67 -126.545 238.74
lradius 22.0485
lwrist -49.9444
lhand -0.202181 23.3446
lfingers 7.12502
lthumb 25.3967 51.673
rfemur 144.85 -182.927 -154.339
rtibia 58.1023
rfoot -29.185 -15.7806
rtoes 6.78655
lfemur -44.5864 -14.0858 0.816377
ltibia 43.3702
lfoot -23.3423 16.0795
ltoes -29.8954
385
root -7.61326 15.9125 11.7121 191.36 201.925 184.029
lowerback -7.20876 1.57007 1.28668
upperback -8.1729 1.9043 -2.47332
thorax -4.32713 0.782629 -3.22411
lowerneck -10.1901 5.09205 4.82423
upperneck 35.0453 4.5585 4.57503
head 13.5709 3.16582 1.61281
rclavicle 1.81826e-014 3.90363e-014
rhumerus -31.1943 47.668 -56.1521
rradius 45.7316
rwrist 3.59923
rhand 6.52785 14.3936
rfingers 7.12502
rthumb 31.8262 -12.847
lclavicle 1.81826e-014 3.90363e-014
lhumerus -169.446 -121.262 236.219
lradius 23.3311
lwrist -46.0714
lhand 0.110225 23.6915
lfingers 7.12502
lthumb 25.6959 51.9771
rfemur 145.416 -183.308 -154.031
rtibia 57.6993
rfoot -28.298 -14.4337
rtoes 6.59254
lfemur -44.6486 -14.0339 0.834296
ltibia 43.3307
lfoot -23.5893 16.8117
ltoes -31.438
386
root -7.59328 15.9651 11.8517 191.454 205.741 183.622
lowerback -6.9683 1.8344 1.21174
upperback -8.17124 2.25701 -2.24346
thorax -4.44639 0.964654 -2.93677
lowerneck -10.0981 5.69747 5.18018
upperneck 34.9678 5.41943 4.36343
head 13.5394 3.54804 1.58436
rclavicle -2.05028e-014 1.46604e-014
rhumerus -31.3459 50.4884 -57.0109
rradius 48.7777
rwrist 3.01906
rhand 6.49505 14.7971
rfingers 7.12502
rthumb 31.7949 -12.4498
lclavicle -2.05028e-014 1.46604e-014
lhumerus -167.971 -117.978 235.39
lradius 24.4618
lwrist -44.2581
lhand 0.770127 22.8458
lfingers 7.12502
lthumb 26.3278 51.0385
rfemur 145.893 -183.979 -153.923
rtibia 57.3092
rfoot -27.5297 -13.5533
rtoes 5.50338
lfemur -44.5989 -13.6267 0.675908
ltibia 43.3018
lfoot -23.8528 16.5366
ltoes -31.7509
387
root -7.52578 16.0692 12.0088 191.19 208.361 184.346
lowerback -6.86611 1.71484 1.26921
upperback -8.15483 2.07786 -2.52383
thorax -4.48608 0.858265 -3.27008
lowerneck -9.81546 6.30586 5.83737
upperneck 34.6877 6.30973 3.91619
head 13.4108 3.94997 1.4029
rclavicle -5.2181e-016 -3.2228e-014
rhumerus -31.3975 52.9823 -57.824
rradius 51.6579
rwrist 2.50831
rhand 6.64709 15.3044
rfingers 7.12502
rthumb 31.9397 -11.9136
lclavicle -5.2181e-016 -3.2228e-014
lhumerus -165.958 -114.881 233.915
lradius 25.6781
lwrist -42.3084
lhand 1.54815 21.919
lfingers 7.12502
lthumb 27.0724 49.9981
rfemur 146.381 -181.967 -155.064
rtibia 56.942
rfoot -26.9116 -11.8898
rtoes 4.38903
lfemur -44.8727 -13.9485 -0.846244
ltibia 43.1256
lfoot -22.5835 16.7028
ltoes -36.3592
388
root -7.4975 16.1521 12.1663 191.249 212.003 183.787
lowerback -6.78715 1.94651 1.87924
upperback -8.00988 2.36356 -2.45489
thorax -4.33828 0.973078 -3.52932
lowerneck -9.2778 6.99499 6.56756
upperneck 34.2857 7.31726 3.48817
head 13.1946 4.41526 1.22008
rclavicle -3.46134e-014 1.58034e-014
rhumerus -31.2344 55.3575 -58.5937
rradius 54.6753
rwrist 1.55871
rhand 7.15962 15.3113
rfingers 7.12502
rthumb 32.4276 -11.8079
lclavicle -3.46134e-014 1.58034e-014
lhumerus -162.114 -110.982 230.223
lradius 27.2896
lwrist -39.059
lhand 2.32059 21.8784
lfingers 7.12502
lthumb 27.8112 49.8405
rfemur 147.117 -182.134 -154.928
rtibia 56.4181
rfoot -25.7246 -11.7634
rtoes 6.17108
lfemur -44.4941 -13.6149 -0.889946
ltibia 43.0038
lfoot -22.0688 15.8424
ltoes -38.3429
389
root -7.47094 16.1982 12.1982 191.878 214.876 183.647
lowerback -5.69008 1.66192 0.896174
upperback -8.69301 2.00031 -2.10536
thorax -5.75079 0.820008 -2.67712
lowerneck -8.07949 7.6575 7.00807
upperneck 33.8438 8.34349 3.24171
head 12.8105 4.87924 1.12204
rclavicle 1.71197e-013 6.19711e-014
rhumerus -31.5553 58.3257 -59.7797
rradius 57.5761
rwrist 0.311773
rhand 8.03127 15.0842
rfingers 7.12502
rthumb 33.2568 -11.8615
lclavicle 1.71197e-013 6.19711e-014
lhumerus -159.86 -107.677 228.058
lradius 29.0284
lwrist -36.0688
lhand 3.05659 22.2093
lfingers 7.12502
lthumb 28.5146 50.0555
rfemur 146.434 -182.644 -154.558
rtibia 56.2006
rfoot -24.4156 -12.9103
rtoes 8.60889
lfemur -45.5179 -9.67084 -1.76124
ltibia 42.7602
lfoot -19.3697 10.7586
ltoes -39.0205
390
root -7.42705 16.2845 12.4481 190.617 219.761 183.005
lowerback -4.66728 2.25296 2.10832
upperback -8.30124 2.79277 -2.07177
thorax -5.81643 1.14843 -3.34255
lowerneck -6.97304 8.32003 7.52213
upperneck 33.3872 9.37397 2.91909
head 12.4667 5.34854 0.982901
rclavicle -1.2424e-016 1.47598e-014
rhumerus -31.8132 61.1141 -60.8677
rradius 60.5197
rwrist -0.717998
rhand 9.38625 14.3211
rfingers 7.12502
rthumb 34.544 -12.3403
lclavicle -1.2424e-016 1.47598e-014
lhumerus -158.416 -105.374 226.755
lradius 30.6478
lwrist -33.5566
lhand 3.76118 21.9998
lfingers 7.12502
lthumb 29.1877 49.7311
rfemur 148.862 -183.027 -154.882
rtibia 55.5967
rfoot -23.6691 -12.2201
rtoes 9.31447
lfemur -42.9284 -12.6441 -1.23979
ltibia 42.6633
lfoot -22.1408 11.0054
ltoes -36.5887
391
root -7.39048 16.3465 12.611 190.358 223.526 182.912
lowerback -4.43141 2.36753 2.30615
upperback -7.90452 2.94584 -2.16892
thorax -5.50011 1.22161 -3.55098
lowerneck -7.39857 9.02246 8.25483
upperneck 33.2078 10.3102 2.54251
head 12.5892 5.79046 0.872952
rclavicle 1.97853e-014 1.6847e-014
rhumerus -30.5804 63.0357 -60.6996
rradius 63.6313
rwrist -1.62626
rhand 10.6926 13.4562
rfingers 7.12502
rthumb 35.7829 -12.9133
lclavicle 1.97853e-014 1.6847e-014
lhumerus -152.751 -104.017 221.09
lradius 32.3455
lwrist -30.6565
lhand 4.76912 21.1417
lfingers 7.12502
lthumb 30.1497 48.7018
rfemur 149.476 -182.783 -155.145
rtibia 55.2881
rfoot -22.9843 -12.2902
rtoes 10.9301
lfemur -42.1741 -12.6042 -1.61581
ltibia 42.5529
lfoot -21.3129 10.4857
ltoes -40.9532
392
root -7.35327 16.4134 12.7915 190.21 227.606 182.761
lowerback -4.6649 2.65666 2.8922
upperback -7.27115 3.31784 -2.44254
thorax -4.62122 1.39958 -4.12669
lowerneck -8.17728 9.72462 9.11098
upperneck 33.0202 11.2054 2.09564
head 12.8086 6.21469 0.743254
rclavicle 3.42407e-014 2.38542e-015
rhumerus -28.2015 64.588 -59.6749
rradius 66.5001
rwrist -3.01509
rhand 12.1836 12.7755
rfingers 7.12502
rthumb 37.1943 -13.2385
lclavicle 3.42407e-014 2.38542e-015
lhumerus -143.718 -103.265 211.999
lradius 33.9929
lwrist -27.176
lhand 6.17031 19.0953
lfingers 7.12502
lthumb 31.4856 46.403
rfemur 150.043 -182.674 -155.535
rtibia 54.8553
rfoot -22.1556 -12.8458
rtoes 14.4718
lfemur -41.3028 -13.1667 -1.80797
ltibia 42.5418
lfoot -20.8376 10.5416
ltoes -43.8789
393
root -7.32238 16.4786 12.9498 190.592 231.602 182.265
lowerback -3.91129 2.49359 2.64061
upperback -7.76094 3.12031 -1.91918
thorax -5.62476 1.29061 -3.49591
lowerneck -7.14897 10.6257 9.29029
upperneck 33.1074 12.6038 1.9249
head 12.7207 6.82716 0.795565
rclavicle -3.24702e-014 2.21148e-014
rhumerus -26.6811 68.3207 -59.3341
rradius 69.0777
rwrist -4.80998
rhand 13.5565 12.0231
rfingers 7.12502
rthumb 38.4912 -13.6407
lclavicle -3.24702e-014 2.21148e-014
lhumerus -139.689 -100.677 207.574
lradius 36.3984
lwrist -23.1495
lhand 6.62003 21.0743
lfingers 7.12502
lthumb 31.9139 48.2975
rfemur 150.174 -182.641 -155.497
rtibia 54.5402
rfoot -20.97 -14.4478
rtoes 16.5918
lfemur -40.836 -12.9712 -1.71859
ltibia 42.5426
lfoot -19.6839 10.1772
ltoes -46.7812
